# xmcd
#
# Track frame offsets: 
#        150
#        17102
#        33004
#        50406
#        63683
#        77485
#        91437
#        101189
#        115141
#        133218
#        151295
#        161872
#        174549
#        194951
#        221728
#        245580
#
# Disc length: 3521 seconds
#
# Revision: 0
# Processed by: cddbd v1.5.1PL2 Copyright (c) Steve Scherf et al.
# Submitted via: ExactAudioCopy v0.95b2
#
DISCID=e90dbf10
DTITLE=Howlin' Wolf - The London Howlin' Wolf Sessions Deluxe Edition 
DTITLE=(Disk 1 of 2)
DYEAR=1971
DGENRE=Blues
TTITLE0=Rockin' Daddy
TTITLE1=I Ain't Superstitious
TTITLE2=Sittin' On Top Of The World
TTITLE3=Worried About My Baby
TTITLE4=What A Woman
TTITLE5=Poor Boy
TTITLE6=Built For Comfort
TTITLE7=Who's Been Talking?
TTITLE8=The Red Rooster (False Start and Dialogue)
TTITLE9=The Red Rooster
TTITLE10=Do The Do
TTITLE11=Highway 49
TTITLE12=Wang Dang Doodle
TTITLE13=Goin' Down Slow
TTITLE14=Killing Floor
TTITLE15=I Want To Have A Word With You
EXTD=
EXTT0=
EXTT1=
EXTT2=
EXTT3=
EXTT4=
EXTT5=
EXTT6=
EXTT7=
EXTT8=
EXTT9=
EXTT10=
EXTT11=
EXTT12=
EXTT13=
EXTT14=
EXTT15=
PLAYORDER=
